<?xml version="1.0" encoding="UTF-8"?>
<svg width="512px" height="512px" viewBox="0 0 512 512" version="1.1" xmlns="http://www.w3.org/2000/svg" xmlns:xlink="http://www.w3.org/1999/xlink">
    <title>Group-16</title>
    <defs>
        <linearGradient x1="12.6600963%" y1="17.799834%" x2="94.7839271%" y2="74.1493905%" id="linearGradient-1">
            <stop stop-color="#7552B5" offset="0%"></stop>
            <stop stop-color="#3255D3" offset="100%"></stop>
        </linearGradient>
        <path d="M399.586438,105.775415 C377.29347,91.1363233 359.261047,79.7335851 345.489165,71.5671993 C324.831343,59.3176211 319.521746,56.4185507 297.699068,48.2462196 C275.876391,40.0738882 261.931341,39.7730443 253.977604,36.3966199 C246.023868,33.0201953 246.045394,27.6307226 239.355945,20.6049748 C232.666496,13.579227 231.527479,14.0503938 225.203663,8.72937199 C218.879848,3.40835021 218.249259,3.07411552 210.393858,1.09435578 C202.538457,-0.885403959 199.778102,-0.155474001 193.764931,3.09280743 C189.756151,5.25832837 186.964724,9.76052665 185.39065,16.5994023 C185.39065,22.8495059 184.362229,25.9745578 182.305388,25.9745578 C179.220126,25.9745578 169.695028,23.4491138 157.06773,18.195754 C146.241299,13.6916127 140.680104,12.6439284 135.435451,8.72937199 C134.563056,8.07822489 127.740282,3.68882632 127.258192,3.09280743 C125.652442,1.10758064 122.637319,4.76282538 121.562731,10.9906288 C120.375174,17.8731482 121.325998,25.8582749 124.018416,34.4213566 C129.147128,50.7329365 132.259568,55.151993 138.010552,65.8825391 C143.761536,76.6130852 145.819181,77.9636955 151.67897,86.0321518 C157.538759,94.1006079 165.693315,96.3179495 164.009894,101.681531 C162.326473,107.045113 151.440106,118.591128 135.435451,137.78596 C119.430796,156.980792 120.12986,151.827486 102.079179,173.485863 C84.0284971,195.14424 79.2450536,204.284905 66.85519,217.601831 C54.4653265,230.918756 47.1392413,232.120586 39.1403551,241.134036 C31.1414692,250.147485 28.2167571,256.774198 20.3227442,270.481688 C12.4287313,284.189178 9.96378375,285.173525 6.11819933,295.81563 C2.27261491,306.457732 -2.20287713,310.170527 1.21874998,325.881201 C4.6403771,341.591872 8.29305314,344.797867 16.4579197,355.90529 C19.9963234,360.718911 33.8907019,372.793577 48.1468178,376.320023 C66.7866899,380.930853 89.7673078,376.320023 89.7673078,376.320023 C89.7673078,376.320023 108.848702,364.700307 127.258192,350.403515 C149.203169,333.361069 154.02013,337.376865 172.636743,329.407709 C191.253357,321.438551 198.333619,320.335794 210.393858,314.815886 C222.454096,309.295978 228.118051,303.59143 233.533769,301.535462 C238.949487,299.479492 241.400863,299.489345 245.376391,301.535462 C248.026743,302.899539 249.837147,305.863025 250.807603,310.425917 C258.995268,322.998562 265.570889,333.831321 270.534464,342.924197 C277.979824,356.56351 275.206838,356.303122 283.920954,371.086954 C292.635069,385.870784 296.901547,390.028242 303.686506,399.167903 C310.471465,408.307567 313.970519,414.380988 315.435458,415.994954 C316.900398,417.608919 343.405194,396.969468 356.786711,383.678532 C374.820163,365.767153 388.564262,347.798989 399.586438,329.407709 C407.078232,316.907123 414.015642,303.677429 417.456218,292.210248 C418.682186,288.124189 420.966318,283.828672 422.897222,277.788729 C425.804129,268.695828 428.576044,256.592499 431.03478,242.813092 C433.291211,230.167449 434.989661,212.580973 434.68197,199.672169 C433.944125,168.716719 429.366789,137.95019 425.021156,127.564574 C422.785965,124.262214 414.307726,116.999161 399.586438,105.775415 Z" id="path-2"></path>
        <linearGradient x1="0%" y1="3.95402304%" x2="91.6450064%" y2="78.1698589%" id="linearGradient-4">
            <stop stop-color="#7552B5" offset="0%"></stop>
            <stop stop-color="#3255D3" offset="100%"></stop>
        </linearGradient>
    </defs>
    <g id="Wireframe" stroke="none" stroke-width="1" fill="none" fill-rule="evenodd">
        <g id="Group-16" transform="translate(-0.000000, -0.000000)">
            <circle id="Oval" fill="url(#linearGradient-1)" fill-rule="nonzero" cx="255.981962" cy="255.981962" r="255.981962"></circle>
            <g id="Path-3" transform="translate(77.281954, 56.309792)">
                <g id="Mask" fill="#FFFFFF" fill-rule="nonzero">
                    <path d="M399.586438,105.775415 C377.29347,91.1363233 359.261047,79.7335851 345.489165,71.5671993 C324.831343,59.3176211 319.521746,56.4185507 297.699068,48.2462196 C275.876391,40.0738882 261.931341,39.7730443 253.977604,36.3966199 C246.023868,33.0201953 246.045394,27.6307226 239.355945,20.6049748 C232.666496,13.579227 231.527479,14.0503938 225.203663,8.72937199 C218.879848,3.40835021 218.249259,3.07411552 210.393858,1.09435578 C202.538457,-0.885403959 199.778102,-0.155474001 193.764931,3.09280743 C189.756151,5.25832837 186.964724,9.76052665 185.39065,16.5994023 C185.39065,22.8495059 184.362229,25.9745578 182.305388,25.9745578 C179.220126,25.9745578 169.695028,23.4491138 157.06773,18.195754 C146.241299,13.6916127 140.680104,12.6439284 135.435451,8.72937199 C134.563056,8.07822489 127.740282,3.68882632 127.258192,3.09280743 C125.652442,1.10758064 122.637319,4.76282538 121.562731,10.9906288 C120.375174,17.8731482 121.325998,25.8582749 124.018416,34.4213566 C129.147128,50.7329365 132.259568,55.151993 138.010552,65.8825391 C143.761536,76.6130852 145.819181,77.9636955 151.67897,86.0321518 C157.538759,94.1006079 165.693315,96.3179495 164.009894,101.681531 C162.326473,107.045113 151.440106,118.591128 135.435451,137.78596 C119.430796,156.980792 120.12986,151.827486 102.079179,173.485863 C84.0284971,195.14424 79.2450536,204.284905 66.85519,217.601831 C54.4653265,230.918756 47.1392413,232.120586 39.1403551,241.134036 C31.1414692,250.147485 28.2167571,256.774198 20.3227442,270.481688 C12.4287313,284.189178 9.96378375,285.173525 6.11819933,295.81563 C2.27261491,306.457732 -2.20287713,310.170527 1.21874998,325.881201 C4.6403771,341.591872 8.29305314,344.797867 16.4579197,355.90529 C19.9963234,360.718911 33.8907019,372.793577 48.1468178,376.320023 C66.7866899,380.930853 89.7673078,376.320023 89.7673078,376.320023 C89.7673078,376.320023 108.848702,364.700307 127.258192,350.403515 C149.203169,333.361069 154.02013,337.376865 172.636743,329.407709 C191.253357,321.438551 198.333619,320.335794 210.393858,314.815886 C222.454096,309.295978 228.118051,303.59143 233.533769,301.535462 C238.949487,299.479492 241.400863,299.489345 245.376391,301.535462 C248.026743,302.899539 249.837147,305.863025 250.807603,310.425917 C258.995268,322.998562 265.570889,333.831321 270.534464,342.924197 C277.979824,356.56351 275.206838,356.303122 283.920954,371.086954 C292.635069,385.870784 296.901547,390.028242 303.686506,399.167903 C310.471465,408.307567 313.970519,414.380988 315.435458,415.994954 C316.900398,417.608919 343.405194,396.969468 356.786711,383.678532 C374.820163,365.767153 388.564262,347.798989 399.586438,329.407709 C407.078232,316.907123 414.015642,303.677429 417.456218,292.210248 C418.682186,288.124189 420.966318,283.828672 422.897222,277.788729 C425.804129,268.695828 428.576044,256.592499 431.03478,242.813092 C433.291211,230.167449 434.989661,212.580973 434.68197,199.672169 C433.944125,168.716719 429.366789,137.95019 425.021156,127.564574 C422.785965,124.262214 414.307726,116.999161 399.586438,105.775415 Z" id="path-2"></path>
                </g>
                <g id="Clipped">
                    <mask id="mask-3" fill="white">
                        <use xlink:href="#path-2"></use>
                    </mask>
                    <g id="path-2"></g>
                    <path d="M433.8468,215.069776 C436.607093,211.886681 441.630488,234.173008 430.405267,247.34 C430.153121,247.635761 429.90082,247.931883 429.64843,248.228274 L427.376381,250.900622 C427.124075,251.197814 426.871885,251.495004 426.61988,251.7921 L425.110593,253.57284 C414.066674,266.612788 403.642415,279.121916 399.634096,283.382746 C390.912367,292.622502 385.104591,305.357841 385.688389,329.055685 C385.868554,336.240485 384.21811,345.428137 381.948637,355.413082 C374.94315,363.328138 375.976946,363.328138 371.494261,367.769294 C370.579613,368.675471 369.650354,369.718557 368.743472,370.80178 L368.142607,371.528813 C368.04315,371.650623 367.944073,371.772662 367.845422,371.894798 L367.259069,372.627724 C363.486469,377.385514 360.519956,381.887422 361.36934,378.258807 C362.275742,374.3866 364.908844,367.182867 367.731376,359.731215 L368.541639,357.598088 L368.541639,357.598088 L369.354245,355.467452 C372.598727,346.971198 375.708178,338.918281 376.387897,335.911636 C379.301849,323.126217 370.585155,327.903846 363.036053,340.614145 C359.866711,345.948213 354.599737,359.188799 349.460796,373.074774 L348.581504,375.460194 C348.142899,376.65471 347.706172,377.85092 347.272719,379.044251 L346.4106,381.425717 C344.553939,386.571371 342.776353,391.605714 341.191887,396.156673 C337.682644,400.835995 330.131842,407.315402 330.131842,405.588551 C330.131842,404.559792 330.911533,397.253433 332.016007,389.824759 L332.257485,388.233273 C332.95482,383.731465 333.759898,379.346639 334.57091,376.456384 C336.606651,369.229844 343.576986,352.031128 350.61967,334.917546 L351.862257,331.900435 C358.482839,315.835715 364.914153,300.370463 367.102502,293.889527 C369.333156,287.302444 382.099837,271.344168 395.750681,255.671458 L397.535446,253.629605 C411.840992,237.320434 426.652327,221.779365 431.003126,217.978294 C431.91069,217.189726 432.86242,216.204936 433.8468,215.069776 Z M421.701304,150.398646 C421.701304,150.398646 426.114784,152.690469 431.469447,155.790047 C431.469447,165.852688 433.8468,174.080204 433.907154,184.851404 C431.547749,186.289291 429.160935,187.770162 426.918673,189.298853 C415.932626,196.792151 385.831262,236.581563 377.165715,248.121242 C368.485134,259.65093 349.399886,291.357569 340.719305,303.471737 C336.761314,308.989838 331.604363,324.084916 326.879949,339.755352 L326.096833,342.370876 C320.776718,360.258927 316.135198,378.244605 314.582338,383.030579 C311.57521,392.262319 303.686506,377.865199 303.686506,364.022579 C303.686506,350.169968 328.565491,288.470153 334.935594,270.016657 C337.985533,261.174358 349.799444,243.066774 362.743303,225.481064 L364.437414,223.19104 C378.031518,204.907393 392.49456,187.655323 399.152844,182.554885 C403.392896,179.292802 412.193763,179.382722 415.155786,175.895841 C421.430663,168.482471 421.315388,158.831104 421.701304,150.398646 Z M57.8164238,254.322554 C89.063948,243.92683 69.388838,282.112953 61.2811283,295.409462 C53.1784328,308.685929 67.6489648,314.482482 84.4409992,321.416305 C101.233034,328.365159 115.106894,323.730919 112.218805,335.875129 C109.335729,348.019339 97.1666438,362.483172 79.8080223,361.897003 C79.1529799,361.874886 78.4971092,361.851965 77.8409391,361.827687 L75.8720585,361.750212 C59.7941599,361.075022 43.8537294,359.247005 35.8248253,348.019339 C33.9214115,345.356497 31.5733523,342.805809 29.1767031,340.251011 L28.2764557,339.292543 C20.0174901,330.500657 11.7693637,321.488505 19.6194339,307.533631 C30.0386181,289.026737 36.917887,261.301466 57.8164238,254.322554 Z M400.344717,126.362781 C400.344717,126.362781 400.925426,126.821214 401.882257,127.611622 L402.667205,128.264698 C409.082452,133.639486 425.932895,148.659187 415.99053,150.313113 C411.768166,151.027676 403.483909,156.454352 396.24772,163.560001 C393.087312,166.658488 389.797651,170.078169 386.518506,173.566035 L384.063304,176.190767 C383.791208,176.482945 383.519427,176.775159 383.248045,177.067259 L381.625151,178.817348 C372.463046,188.713613 363.946407,198.141708 359.254399,201.34686 C348.247169,208.84227 312.943798,275.7413 304.825026,290.847052 C296.736341,305.96779 297.88972,342.070681 296.545782,352.454323 C295.216893,362.847958 287.474221,347.857138 285.754184,332.776373 C284.837611,324.9113 290.716569,303.257967 297.59974,281.49796 L298.483452,278.720564 C304.553328,259.752121 311.199858,241.145543 314.578585,231.983099 C321.990288,211.840434 365.623048,165.014111 374.865111,155.78976 C377.568024,153.091412 385.716885,150.258147 388.605344,147.324943 C395.590796,140.174323 398.699901,134.123028 400.344717,126.362781 Z M91.4316171,293.831893 C100.103829,293.831893 126.110452,286.304706 133.055232,303.684387 C139.979983,321.018966 130.156149,330.270087 124.423076,333.763062 C119.832119,336.529633 121.789812,327.542185 123.355713,318.801338 L123.552952,317.687748 C123.876354,315.837083 124.16865,314.020699 124.362991,312.354181 C125.529634,302.516722 96.1783015,311.171483 83.9210407,301.354066 C78.1378968,296.728506 82.7694191,293.836904 91.4316171,293.831893 Z M94.4573276,262.166299 L94.4887475,262.173268 C95.0761403,262.301205 103.179887,263.964804 132.210932,265.080557 C156.501884,266.026365 158.630347,278.704902 158.228629,293.067391 L158.193068,294.175352 C158.153179,295.286292 158.101297,296.405673 158.046357,297.528921 L157.99073,298.653288 C157.906754,300.341262 157.822601,302.034503 157.768432,303.717574 C157.184606,321.857353 147.893715,320.681157 145.568475,318.921932 C143.258335,317.15257 146.741161,301.963419 145.568475,288.492937 C144.759967,279.057719 136.224184,278.257044 124.652052,278.219 L122.40022,278.218988 C118.081265,278.22884 113.404242,278.272731 108.591131,277.978154 C89.6218084,276.796887 85.1474844,264.507669 94.4534745,262.165417 C94.4534745,262.165417 94.4547477,262.165417 94.4573276,262.166299 Z M356.20894,96.3179494 L356.52748,96.3304785 C356.52748,96.3304785 372.052462,102.693175 371.494261,105.600832 C370.901172,108.488402 358.835045,114.28865 347.900274,122.971447 C336.965503,131.669308 316.262204,170.508375 314.433097,184.002113 C313.305182,192.23942 320.6543,180.876623 329.040154,168.069522 L329.868072,166.805789 C334.990957,158.991939 340.40552,150.86572 344.451385,146.478774 C349.201083,141.31128 358.401443,136.806671 363.514968,129.153356 C370.123678,119.240205 373.961313,109.899545 374.94315,107.966129 C376.385413,105.097459 390.301615,116.118449 394.817389,119.802132 L395.351297,120.239257 C395.907794,120.69662 396.224587,120.962703 396.224587,120.962703 L396.224587,120.962703 L396.164387,121.014322 C395.16979,121.86559 382.069614,133.017871 373.208738,137.479601 C364.003394,142.104734 344.451385,177.458629 324.311273,198.660923 C304.171158,219.868238 294.397645,243.551331 290.97866,256.969742 C289.662901,262.124448 288.081488,272.441835 286.349875,283.252784 L286.033408,285.222809 L286.033408,285.222809 L285.713783,287.197476 C283.091054,303.325897 280.168024,319.294704 277.322656,319.81832 C272.343699,320.727278 265.062157,302.688756 261.020179,298.611005 C258.578047,296.153352 264.013523,285.30974 270.069939,273.529089 L270.938579,271.840569 L270.938579,271.840569 L272.682404,268.444587 C275.725271,262.496409 278.664205,256.58 280.592125,251.626482 C286.90678,235.350633 300.144133,205.882358 301.883529,190.801712 C303.59302,175.721066 320.847432,141.537264 328.338297,129.364275 C330.481393,125.879104 338.326121,121.625588 341.191887,117.341941 C348.333879,106.705642 351.608328,95.8985984 356.52748,96.3304785 L356.20894,96.3179494 Z M98.0963073,243.022353 C102.540657,237.421108 123.293949,237.674085 143.322998,238.73403 L145.504293,238.852619 L145.504293,238.852619 L147.674928,238.976154 C154.88715,239.394564 161.839799,239.871141 167.713848,240.163194 C185.12326,241.009754 183.600219,259.620081 180.03931,279.526821 L179.750411,281.121815 C179.701643,281.388004 179.652593,281.654345 179.603301,281.920801 L179.304963,283.520577 L179.304963,283.520577 L179.002736,285.1212 C178.85097,285.921413 178.698467,286.721238 178.546307,287.519626 L178.242766,289.114171 C177.940324,290.706172 177.64214,292.289609 177.356863,293.85605 L177.076209,295.416513 C176.846451,296.711656 176.627658,297.993043 176.424837,299.255795 C172.363395,324.520817 163.084407,317.614083 164.240511,312.780863 C165.092308,309.178522 166.585445,297.219556 167.772776,284.738119 L167.962485,282.710761 C168.304824,278.990076 168.615609,275.260639 168.869952,271.728311 C170.036108,255.642434 153.217315,252.201497 129.416661,252.733549 C105.651193,253.270574 92.9993984,249.42687 98.0963073,243.022353 Z M132.975025,208.842429 C139.924717,204.301868 165.791893,208.842429 190.246941,210.565745 C214.701988,212.309041 204.801955,272.839867 201.886918,288.399657 C199.201208,302.803595 194.523915,305.367961 190.150653,306.344043 L189.616828,306.456321 C189.439496,306.491565 189.262827,306.524862 189.086977,306.556907 C184.421909,307.421063 185.581872,301.107233 191.986885,271.695984 C198.391899,242.289732 189.672002,233.058756 182.75257,227.059621 C175.863399,221.070476 134.931832,222.693889 123.291855,224.986647 C111.646835,227.309377 118.551136,218.27321 132.975025,208.842429 Z M205.901707,144.520662 C221.776914,149.715342 239.234117,162.954039 242.096777,191.756815 C242.854926,199.395719 244.227811,208.656996 245.662848,218.271269 L245.994862,220.495635 C246.27204,222.353533 246.549945,224.220874 246.824647,226.088631 L247.1525,228.329561 L247.1525,228.329561 L247.475768,230.567423 C247.52918,230.939952 247.582338,231.312208 247.635211,231.684121 L247.948773,233.910881 C250.941911,255.385105 252.763645,275.214574 247.279698,279.307869 C237.998654,286.219139 237.983587,286.30896 238.586252,276.767917 C240.740781,242.905194 231.635513,182.540126 228.145077,194.636094 C224.67473,206.732062 229.897828,257.426344 224.087131,273.554301 L223.913543,274.038173 L223.913543,274.038173 L223.21658,275.979127 C222.925579,276.7883 222.6341,277.596643 222.343158,278.398975 L221.994351,279.358554 C221.704002,280.155247 221.414597,280.943851 221.12715,281.719186 L220.783221,282.642887 C216.15462,295.017896 212.146876,303.366222 213.078446,285.650269 C213.594119,275.87282 214.688324,261.296827 215.484362,246.484639 L215.669237,242.927515 C216.530793,225.735408 216.896761,208.716601 215.398707,198.992439 C215.142131,197.338226 214.899123,195.679739 214.655355,194.027043 L214.410803,192.37665 C214.369825,192.10203 214.328693,191.827665 214.287342,191.5536 L214.036059,189.913191 C211.6137,174.370667 208.045157,160.107709 191.046009,155.753346 C170.751257,150.573637 190.056634,139.340953 205.901707,144.520662 Z M326.872439,77.0892575 C326.872439,77.0892575 355.130053,90.4295931 352.82647,93.8939633 C350.532881,97.3834375 329.19601,106.064446 324.039185,106.109634 C318.917334,106.189967 310.157726,129.255643 306.210155,146.055328 C302.257586,162.870075 274.299789,237.077888 267.948699,251.492681 C263.821238,260.881625 260.12851,239.412572 265.520193,216.688313 C268.413411,204.502767 280.096224,190.715578 281.895116,183.887254 C287.096916,164.366281 299.189473,122.301798 307.844149,107.866923 C309.353221,105.366551 310.617443,102.896305 311.761738,100.531495 C317.243364,89.1543031 316.378898,78.0632979 326.872439,77.0892575 Z M189.79238,36.4208688 C193.835856,10.4523109 201.907794,0.637855969 227.33465,24.8815097 C252.761506,49.1201636 238.299075,98.7524072 238.299075,87.7780168 C238.299075,76.8086259 235.987087,65.2792661 227.33465,46.8102918 C218.682213,28.3413176 209.424255,25.4464782 200.756805,39.8956758 C192.089355,54.3098752 199.025316,89.5229198 211.726234,99.3173759 C224.442164,109.14183 225.603162,113.181606 224.442164,121.261157 C223.720357,126.327995 214.588941,127.308902 205.175257,127.76628 L203.647522,127.836423 C198.555385,128.058687 193.509134,128.184247 189.79238,128.77574 C178.807938,130.505644 160.337062,155.299267 144.728645,163.393818 C139.162042,166.26684 128.679064,179.81398 117.365207,193.77802 L115.74373,195.774612 C115.201648,196.440349 114.658124,197.105925 114.113597,197.77023 L112.477452,199.758229 C107.562649,205.704154 102.602435,211.457512 97.9184084,216.210884 C84.4168031,229.880125 73.2271849,231.315046 71.9410795,232.060004 C70.1995824,233.105154 80.0500505,220.457439 91.5169956,207.263102 L92.7085887,205.89676 C93.7057064,204.757415 94.7122807,203.617376 95.7219209,202.485067 L96.9345517,201.130544 C97.3389799,200.680632 97.7434895,200.232496 98.1476716,199.786675 L99.3588266,198.456694 C104.397804,192.948532 109.3217,187.886259 113.331657,184.322655 C121.038282,177.488035 133.941873,160.422733 147.166365,143.62554 L149.31292,140.90568 C161.841915,125.072879 174.422209,109.987797 182.926478,104.537086 C182.926478,104.537086 185.733892,103.942119 189.79238,98.1824389 C193.835856,92.4127594 185.733892,62.399426 189.79238,36.4208688 Z M189.398328,176.262786 L189.770954,176.784146 C190.398291,177.683556 190.717941,178.257598 190.717941,178.257598 C190.717941,178.257598 185.529149,184.678311 176.871166,191.658883 C168.213183,198.639455 156.096005,196.319322 150.892217,191.658883 C145.703426,186.9934 141.444417,183.523289 141.444417,183.523289 C149.16262,176.512455 147.717956,171.231633 166.63355,166.616587 C178.599535,163.704299 186.443021,172.22477 189.398328,176.262786 Z M299.37155,62.6677386 C299.37155,62.6677386 303.691579,64.5700482 308.532366,66.9727468 L309.615125,67.5143471 C317.051445,71.2637788 325.039637,75.9275979 320.276351,76.5969086 C315.953474,77.2261627 307.972007,84.1278223 301.022193,93.5565668 C294.963123,101.802313 289.699176,111.960993 288.335382,121.525656 C285.441725,142.014171 270.344372,188.755171 263.948126,192.24879 C260.4954,194.138867 261.447346,183.132533 263.220772,170.962933 L263.451356,169.403952 C264.623813,161.586492 266.068842,153.498509 266.854604,148.191302 L267.002691,147.167842 C267.141435,146.183267 267.251322,145.31806 267.3249,144.59663 C268.386747,134.130875 278.456683,101.001902 284.847895,94.0549362 C286.382792,92.3886712 290.298038,90.2995474 291.36492,87.3596718 C293.302413,81.9581541 293.629523,63.9866553 299.37155,62.6677386 Z M263.941403,74.3373812 C269.094798,65.115527 251.491916,49.4598211 262.790693,50.721654 C264.78379,50.9458412 270.819489,52.726995 276.966221,54.9249218 L278.156242,55.3552251 C287.472396,58.7619037 296.46073,62.957506 291.419557,63.9684061 C284.857535,65.2751264 279.733901,74.0381322 276.098253,79.344813 C271.158137,86.6015995 266.634658,94.606508 263.941403,100.790986 C257.642261,115.204808 257.642261,163.553459 254.209971,165.852688 C250.762802,168.161892 238.159556,146.286796 237.599081,134.242027 C237.023726,122.212221 258.778089,83.5442729 263.941403,74.3373812 Z M144.547986,47.3399343 C137.022199,35.8311988 131.222326,16.2763124 135.933469,21.4627166 C140.644611,26.6341746 157.863612,30.081813 178.700008,38.1478924 C178.700008,38.1478924 177.940334,38.5250756 176.680918,39.1503475 L175.945965,39.5152327 C173.471566,40.7437001 169.647205,42.6423045 165.812389,44.5457839 L164.602609,45.1462689 C162.389771,46.2446098 160.220689,47.3211129 158.355297,48.2466832 C150.754252,52.0181605 166.553388,69.1766391 164.401013,74.9409714 C162.955407,78.8572197 157.759608,69.9671896 152.21483,60.2659544 L151.505353,59.0240164 C149.135856,54.8756959 146.729374,50.6729115 144.547986,47.3399343 Z" id="Shape" fill="url(#linearGradient-4)" fill-rule="nonzero" mask="url(#mask-3)"></path>
                </g>
            </g>
        </g>
    </g>
</svg>